<mxfile host="app.diagrams.net" modified="2021-12-27T09:42:03.785Z" agent="5.0 (Macintosh; Intel Mac OS X 11_2_3) AppleWebKit/537.36 (KHTML, like Gecko) Chrome/88.0.4324.192 Safari/537.36" etag="HwIIbQyLwLFbBMogchsd" version="16.1.0" type="github">
  <diagram id="DrZSJJ-xVzIKOVdjCrZx" name="Page-1">
    <mxGraphModel dx="856" dy="474" grid="1" gridSize="10" guides="1" tooltips="1" connect="1" arrows="1" fold="1" page="1" pageScale="1" pageWidth="827" pageHeight="1169" math="0" shadow="0">
      <root>
        <mxCell id="0" />
        <mxCell id="1" parent="0" />
        <mxCell id="V6_Sba7n9bD_rrZkqpJI-3" value="" style="edgeStyle=orthogonalEdgeStyle;rounded=0;orthogonalLoop=1;jettySize=auto;html=1;" edge="1" parent="1" source="V6_Sba7n9bD_rrZkqpJI-1" target="V6_Sba7n9bD_rrZkqpJI-2">
          <mxGeometry relative="1" as="geometry" />
        </mxCell>
        <mxCell id="V6_Sba7n9bD_rrZkqpJI-1" value="预处理" style="rounded=0;whiteSpace=wrap;html=1;" vertex="1" parent="1">
          <mxGeometry x="220" y="20" width="120" height="60" as="geometry" />
        </mxCell>
        <mxCell id="V6_Sba7n9bD_rrZkqpJI-5" value="" style="edgeStyle=orthogonalEdgeStyle;rounded=0;orthogonalLoop=1;jettySize=auto;html=1;" edge="1" parent="1" source="V6_Sba7n9bD_rrZkqpJI-2" target="V6_Sba7n9bD_rrZkqpJI-4">
          <mxGeometry relative="1" as="geometry" />
        </mxCell>
        <mxCell id="V6_Sba7n9bD_rrZkqpJI-9" value="" style="edgeStyle=orthogonalEdgeStyle;rounded=0;orthogonalLoop=1;jettySize=auto;html=1;" edge="1" parent="1" source="V6_Sba7n9bD_rrZkqpJI-2" target="V6_Sba7n9bD_rrZkqpJI-8">
          <mxGeometry relative="1" as="geometry" />
        </mxCell>
        <mxCell id="V6_Sba7n9bD_rrZkqpJI-2" value="离线触发" style="rounded=0;whiteSpace=wrap;html=1;" vertex="1" parent="1">
          <mxGeometry x="220" y="100" width="120" height="60" as="geometry" />
        </mxCell>
        <mxCell id="V6_Sba7n9bD_rrZkqpJI-7" value="" style="edgeStyle=orthogonalEdgeStyle;rounded=0;orthogonalLoop=1;jettySize=auto;html=1;" edge="1" parent="1" source="V6_Sba7n9bD_rrZkqpJI-4" target="V6_Sba7n9bD_rrZkqpJI-6">
          <mxGeometry relative="1" as="geometry" />
        </mxCell>
        <mxCell id="V6_Sba7n9bD_rrZkqpJI-4" value="在线触发&lt;br&gt;" style="rounded=0;whiteSpace=wrap;html=1;" vertex="1" parent="1">
          <mxGeometry x="220" y="180" width="120" height="50" as="geometry" />
        </mxCell>
        <mxCell id="V6_Sba7n9bD_rrZkqpJI-11" value="" style="edgeStyle=orthogonalEdgeStyle;rounded=0;orthogonalLoop=1;jettySize=auto;html=1;" edge="1" parent="1" source="V6_Sba7n9bD_rrZkqpJI-6" target="V6_Sba7n9bD_rrZkqpJI-10">
          <mxGeometry relative="1" as="geometry" />
        </mxCell>
        <mxCell id="V6_Sba7n9bD_rrZkqpJI-14" value="" style="edgeStyle=orthogonalEdgeStyle;rounded=0;orthogonalLoop=1;jettySize=auto;html=1;" edge="1" parent="1" source="V6_Sba7n9bD_rrZkqpJI-6" target="V6_Sba7n9bD_rrZkqpJI-13">
          <mxGeometry relative="1" as="geometry" />
        </mxCell>
        <mxCell id="V6_Sba7n9bD_rrZkqpJI-6" value="过滤" style="rounded=0;whiteSpace=wrap;html=1;" vertex="1" parent="1">
          <mxGeometry x="220" y="250" width="120" height="50" as="geometry" />
        </mxCell>
        <mxCell id="V6_Sba7n9bD_rrZkqpJI-8" value="search_biz" style="shape=process;whiteSpace=wrap;html=1;backgroundOutline=1;rounded=0;" vertex="1" parent="1">
          <mxGeometry x="420" y="100" width="120" height="60" as="geometry" />
        </mxCell>
        <mxCell id="V6_Sba7n9bD_rrZkqpJI-10" value="1.filter_cond&lt;br&gt;2.&lt;span style=&quot;color: rgb(51 , 51 , 51) ; font-family: &amp;#34;arial&amp;#34; , sans-serif ; font-size: 14px ; background-color: rgb(255 , 255 , 255)&quot;&gt;&amp;nbsp;title_blacklist&lt;br&gt;&lt;/span&gt;3.&lt;span style=&quot;color: rgb(51 , 51 , 51) ; font-family: &amp;#34;arial&amp;#34; , sans-serif ; font-size: 14px ; background-color: rgb(255 , 255 , 255)&quot;&gt;&amp;nbsp;filter_acctitles&lt;br&gt;&lt;/span&gt;4.&lt;span style=&quot;color: rgb(51 , 51 , 51) ; font-family: &amp;#34;arial&amp;#34; , sans-serif ; font-size: 14px ; background-color: rgb(255 , 255 , 255)&quot;&gt;&amp;nbsp;filter_region&lt;br&gt;&lt;/span&gt;5.&lt;span style=&quot;color: rgb(51 , 51 , 51) ; font-family: &amp;#34;arial&amp;#34; , sans-serif ; font-size: 14px ; background-color: rgb(255 , 255 , 255)&quot;&gt;&amp;nbsp;filter_sim&lt;br&gt;&lt;/span&gt;" style="shape=process;whiteSpace=wrap;html=1;backgroundOutline=1;rounded=0;" vertex="1" parent="1">
          <mxGeometry x="420" y="233.75" width="290" height="82.5" as="geometry" />
        </mxCell>
        <mxCell id="V6_Sba7n9bD_rrZkqpJI-16" value="" style="edgeStyle=orthogonalEdgeStyle;rounded=0;orthogonalLoop=1;jettySize=auto;html=1;" edge="1" parent="1" source="V6_Sba7n9bD_rrZkqpJI-13" target="V6_Sba7n9bD_rrZkqpJI-15">
          <mxGeometry relative="1" as="geometry" />
        </mxCell>
        <mxCell id="V6_Sba7n9bD_rrZkqpJI-13" value="排序" style="rounded=0;whiteSpace=wrap;html=1;" vertex="1" parent="1">
          <mxGeometry x="220" y="316.25" width="120" height="50" as="geometry" />
        </mxCell>
        <mxCell id="V6_Sba7n9bD_rrZkqpJI-18" value="" style="edgeStyle=orthogonalEdgeStyle;rounded=0;orthogonalLoop=1;jettySize=auto;html=1;" edge="1" parent="1" source="V6_Sba7n9bD_rrZkqpJI-15" target="V6_Sba7n9bD_rrZkqpJI-17">
          <mxGeometry relative="1" as="geometry" />
        </mxCell>
        <mxCell id="V6_Sba7n9bD_rrZkqpJI-20" value="" style="edgeStyle=orthogonalEdgeStyle;rounded=0;orthogonalLoop=1;jettySize=auto;html=1;" edge="1" parent="1" source="V6_Sba7n9bD_rrZkqpJI-15" target="V6_Sba7n9bD_rrZkqpJI-19">
          <mxGeometry relative="1" as="geometry" />
        </mxCell>
        <mxCell id="V6_Sba7n9bD_rrZkqpJI-15" value="后处理" style="rounded=0;whiteSpace=wrap;html=1;" vertex="1" parent="1">
          <mxGeometry x="220" y="380" width="120" height="50" as="geometry" />
        </mxCell>
        <mxCell id="V6_Sba7n9bD_rrZkqpJI-17" value="分页输出" style="rounded=0;whiteSpace=wrap;html=1;" vertex="1" parent="1">
          <mxGeometry x="220" y="440" width="120" height="50" as="geometry" />
        </mxCell>
        <mxCell id="V6_Sba7n9bD_rrZkqpJI-19" value="package_res" style="shape=process;whiteSpace=wrap;html=1;backgroundOutline=1;rounded=0;" vertex="1" parent="1">
          <mxGeometry x="420" y="375" width="120" height="60" as="geometry" />
        </mxCell>
      </root>
    </mxGraphModel>
  </diagram>
</mxfile>
